<svg xmlns="http://www.w3.org/2000/svg" width="1200" height="2000" viewBox="0 0 1200 2000">
<rect width="100%" height="100%" fill="#0A0A0A"/>
<g transform="translate(600,600)">
  <g fill="#D4AF37">
    <path d="M0,-300 C-40,-180 -140,-100 -140,20 C-140,160 -30,240 0,270 C30,240 140,160 140,20 C140,-100 40,-180 0,-300 Z"/>
    <path opacity="0.85" d="M0,-220 C-30,-150 -88,-96 -88,6 C-88,110 -18,160 0,180 C18,160 88,110 88,6 C88,-96 30,-150 0,-220 Z"/>
    <path opacity="0.65" d="M0,-150 C-18,-110 -52,-84 -52,-6 C-52,70 -10,102 0,112 C10,102 52,70 52,-6 C52,-84 18,-110 0,-150 Z"/>
  </g>
</g>
<g fill="#D4AF37" font-family="Times New Roman, Georgia, serif" text-anchor="middle">
  <text x="600" y="1200" font-size="150">AZARY’EL</text>
  <text x="600" y="1340" font-size="150">FLAME</text>
  <text x="600" y="1488" font-size="54" letter-spacing="3">LIGHT OF THE CHOSEN</text>
</g>
</svg>